<?xml version="1.0" encoding="UTF-8" standalone="no"?>
<!-- Created with Inkscape (http://www.inkscape.org/) -->

<svg
   width="500.00003"
   height="500"
   viewBox="0 0 132.29167 132.29167"
   version="1.1"
   id="svg1"
   xml:space="preserve"
   sodipodi:docname="Joy Presentes Logo.svg"
   inkscape:version="1.4.2 (f4327f4, 2025-05-13)"
   inkscape:export-filename="logotipos"
   inkscape:export-xdpi="96"
   inkscape:export-ydpi="96"
   xmlns:inkscape="http://www.inkscape.org/namespaces/inkscape"
   xmlns:sodipodi="http://sodipodi.sourceforge.net/DTD/sodipodi-0.dtd"
   xmlns="http://www.w3.org/2000/svg"
   xmlns:svg="http://www.w3.org/2000/svg"><sodipodi:namedview
     id="namedview1"
     pagecolor="#ffffff"
     bordercolor="#999999"
     borderopacity="1"
     inkscape:showpageshadow="2"
     inkscape:pageopacity="0"
     inkscape:pagecheckerboard="0"
     inkscape:deskcolor="#353535"
     inkscape:document-units="px"
     inkscape:zoom="0.28531759"
     inkscape:cx="587.0651"
     inkscape:cy="2977.3839"
     inkscape:window-width="1920"
     inkscape:window-height="1009"
     inkscape:window-x="-8"
     inkscape:window-y="-8"
     inkscape:window-maximized="1"
     inkscape:current-layer="layer1"
     showguides="true"
     showgrid="false"><inkscape:grid
       id="grid347"
       units="px"
       originx="-149.34171"
       originy="-1041.9146"
       spacingx="0.26458333"
       spacingy="0.26458334"
       empcolor="#0099e5"
       empopacity="0.30196078"
       color="#0099e5"
       opacity="0.14901961"
       empspacing="5"
       enabled="true"
       visible="false" /><inkscape:page
       x="0"
       y="0"
       width="132.29167"
       height="132.29167"
       id="page24"
       margin="0"
       bleed="0"
       inkscape:label="favicon_roxo"
       inkscape:export-filename="logotipos\circular_colorido.png"
       inkscape:export-xdpi="96"
       inkscape:export-ydpi="96" /></sodipodi:namedview><defs
     id="defs1" /><g
     inkscape:label="Layer 1"
     inkscape:groupmode="layer"
     id="layer1"
     transform="translate(-149.34171,-1041.9145)"><g
       id="g24"><circle
         style="fill:#500087;fill-opacity:1;stroke:#ffffff;stroke-width:0;stroke-dasharray:none;stroke-dashoffset:0"
         id="path17"
         cx="-215.48753"
         cy="1108.0604"
         transform="scale(-1,1)"
         r="65.952637" /><g
         id="g21"
         transform="matrix(2.9813518,0,0,2.9813518,-792.40107,731.0989)"><g
           id="g3"
           transform="matrix(0.43646063,0,0,0.43646063,305.9378,81.990781)"
           style="fill:#fdba22;fill-opacity:1"><path
             id="path1"
             style="display:inline;fill:#fdba22;fill-opacity:1"
             d="m 86.670679,64.068768 c -1.16022,0.02112 -2.3811,0.307315 -3.5848,0.896586 -3.88191,1.900397 -7.94644,7.58051 -9.21235,12.87415 l -0.34572,1.444356 -0.84026,-2.634981 c -1.85938,-5.82916 -4.80065,-9.841224 -8.57312,-11.69386 -1.24754,-0.612652 -1.82895,-0.730188 -3.60443,-0.730188 -2.3789,0 -3.53979,0.427883 -4.92321,1.814359 -2.57586,2.581545 -2.40744,6.629645 0.43718,10.504785 1.76842,2.40907 5.0613,4.463103 9.77615,6.098853 l 2.11821,0.735356 -12.51344,0.01447 -12.513453,0.01447 -0.649572,0.649056 c -0.64543,0.64591 -0.649573,0.678379 -0.649573,5.902999 0,5.662423 0.07415,6.001443 1.385962,6.351553 0.39806,0.10624 7.093416,0.23218 14.878166,0.28008 l 14.15365,0.0873 0.0708,-6.569618 0.0708,-6.569108 h 1.45521 1.4552 l 0.0708,6.548438 0.0708,6.548438 h 14.11128 c 14.548821,0 15.509871,-0.0639 16.047601,-1.06867 0.14289,-0.26699 0.2589,-2.738995 0.2589,-5.513875 0,-4.93502 -0.0119,-5.043877 -0.63821,-5.772257 l -0.6382,-0.742074 -12.260231,-0.132292 -12.26024,-0.132291 1.85209,-0.63252 c 7.71538,-2.63488 12.12622,-7.395147 11.70574,-12.633337 -0.29551,-3.68148 -3.23109,-6.003563 -6.71173,-5.940206 z m 0.17776,3.159497 c 2.70034,0.08814 4.34298,2.86077 2.75332,6.050793 -1.44582,2.90138 -5.30744,5.379955 -10.83448,6.954615 -2.54503,0.72508 -2.79314,0.705642 -2.53214,-0.199988 1.50735,-5.23022 5.13403,-10.662812 8.14369,-12.198222 0.87419,-0.445977 1.71352,-0.631878 2.46961,-0.607198 z m -26.20563,0.03927 c 2.5356,0 5.65988,2.753699 7.77885,6.856429 1.06834,2.06848 2.53938,5.902234 2.53938,6.617684 0,0.15624 -0.0893,0.275167 -0.19844,0.264067 -0.57033,-0.05801 -6.18503,-2.100339 -7.20989,-2.622579 -4.20616,-2.14335 -6.61458,-4.890106 -6.61458,-7.543726 0,-2.33072 1.28744,-3.571875 3.70468,-3.571875 z" /><path
             style="display:inline;fill:#fdba22;fill-opacity:1"
             d="m 75.256349,126.61426 0.07,-8.14795 1.45521,-0.1861 c 3.29116,-0.4209 6.6408,-2.12418 9.49621,-4.82882 3.11936,-2.95465 3.91534,-4.64519 2.61575,-5.55547 -1.05852,-0.74141 -1.69731,-0.51887 -2.80489,0.97719 -2.5782,3.48248 -5.7237,5.52136 -9.6378,6.24709 l -1.25677,0.23303 v -7.90335 -7.903338 h 13.23517 13.235171 l -0.0722,15.982888 -0.0721,15.98289 -0.8218,1.01659 c -1.736441,2.14801 -1.194961,2.06508 -14.064861,2.15412 l -11.44707,0.0792 z"
             id="path2" /><path
             style="display:inline;fill:#fdba22;fill-opacity:1"
             d="M 49.070039,134.47862 C 47.88546,134.19731 46.5127,133.09047 45.99481,131.9991 45.60748,131.18285 45.5607,129.3852 45.5607,115.31541 V 99.546542 h 13.229169 13.22918 v 7.901378 7.90139 l -1.38907,-0.25112 c -3.58395,-0.64791 -7.2268,-3.01129 -9.48208,-6.15171 -0.94952,-1.32218 -1.54884,-1.63092 -2.34197,-1.20645 -1.62862,0.87161 -1.01081,2.52845 2.08403,5.58899 2.78255,2.75171 5.60398,4.14273 10.40148,5.12815 l 0.72761,0.14946 v 8.06475 8.06475 l -11.04637,-0.0271 c -6.07549,-0.0149 -11.43168,-0.11859 -11.90264,-0.23043 z"
             id="path3" /></g></g></g></g></svg>
