<?xml version="1.0" encoding="UTF-8" standalone="no"?>
<!-- Created with Inkscape (http://www.inkscape.org/) -->

<svg
   width="500.00003"
   height="240"
   viewBox="0 0 132.29167 63.500002"
   version="1.1"
   id="svg1"
   xml:space="preserve"
   xmlns="http://www.w3.org/2000/svg"
   xmlns:svg="http://www.w3.org/2000/svg"><defs
     id="defs1" /><g
     id="layer1"
     transform="translate(-462.93886,-333.80767)"><g
       id="g346"
       transform="matrix(2.1874459,0,0,2.1874459,-92.672422,29.348168)"><g
         id="g60"
         transform="translate(1.2463028e-6,-0.00510717)"><g
           id="g332"
           transform="matrix(0.22417367,0,0,0.22417367,267.73813,124.83287)"
           style="fill:#f7f7ff;fill-opacity:1"><path
             id="path330"
             style="display:inline;fill:#f7f7ff;fill-opacity:1"
             d="m 86.670679,64.068768 c -1.16022,0.02112 -2.3811,0.307315 -3.5848,0.896586 -3.88191,1.900397 -7.94644,7.58051 -9.21235,12.87415 l -0.34572,1.444356 -0.84026,-2.634981 c -1.85938,-5.82916 -4.80065,-9.841224 -8.57312,-11.69386 -1.24754,-0.612652 -1.82895,-0.730188 -3.60443,-0.730188 -2.3789,0 -3.53979,0.427883 -4.92321,1.814359 -2.57586,2.581545 -2.40744,6.629645 0.43718,10.504785 1.76842,2.40907 5.0613,4.463103 9.77615,6.098853 l 2.11821,0.735356 -12.51344,0.01447 -12.513453,0.01447 -0.649572,0.649056 c -0.64543,0.64591 -0.649573,0.678379 -0.649573,5.902999 0,5.662423 0.07415,6.001443 1.385962,6.351553 0.39806,0.10624 7.093416,0.23218 14.878166,0.28008 l 14.15365,0.0873 0.0708,-6.569618 0.0708,-6.569108 h 1.45521 1.4552 l 0.0708,6.548438 0.0708,6.548438 h 14.11128 c 14.548821,0 15.509871,-0.0639 16.047601,-1.06867 0.14289,-0.26699 0.2589,-2.738995 0.2589,-5.513875 0,-4.93502 -0.0119,-5.043877 -0.63821,-5.772257 l -0.6382,-0.742074 -12.260231,-0.132292 -12.26024,-0.132291 1.85209,-0.63252 c 7.71538,-2.63488 12.12622,-7.395147 11.70574,-12.633337 -0.29551,-3.68148 -3.23109,-6.003563 -6.71173,-5.940206 z m 0.17776,3.159497 c 2.70034,0.08814 4.34298,2.86077 2.75332,6.050793 -1.44582,2.90138 -5.30744,5.379955 -10.83448,6.954615 -2.54503,0.72508 -2.79314,0.705642 -2.53214,-0.199988 1.50735,-5.23022 5.13403,-10.662812 8.14369,-12.198222 0.87419,-0.445977 1.71352,-0.631878 2.46961,-0.607198 z m -26.20563,0.03927 c 2.5356,0 5.65988,2.753699 7.77885,6.856429 1.06834,2.06848 2.53938,5.902234 2.53938,6.617684 0,0.15624 -0.0893,0.275167 -0.19844,0.264067 -0.57033,-0.05801 -6.18503,-2.100339 -7.20989,-2.622579 -4.20616,-2.14335 -6.61458,-4.890106 -6.61458,-7.543726 0,-2.33072 1.28744,-3.571875 3.70468,-3.571875 z" /><path
             style="display:inline;fill:#f7f7ff;fill-opacity:1"
             d="m 75.256349,126.61426 0.07,-8.14795 1.45521,-0.1861 c 3.29116,-0.4209 6.6408,-2.12418 9.49621,-4.82882 3.11936,-2.95465 3.91534,-4.64519 2.61575,-5.55547 -1.05852,-0.74141 -1.69731,-0.51887 -2.80489,0.97719 -2.5782,3.48248 -5.7237,5.52136 -9.6378,6.24709 l -1.25677,0.23303 v -7.90335 -7.903338 h 13.23517 13.235171 l -0.0722,15.982888 -0.0721,15.98289 -0.8218,1.01659 c -1.736441,2.14801 -1.194961,2.06508 -14.064861,2.15412 l -11.44707,0.0792 z"
             id="path331" /><path
             style="display:inline;fill:#f7f7ff;fill-opacity:1"
             d="M 49.070039,134.47862 C 47.88546,134.19731 46.5127,133.09047 45.99481,131.9991 45.60748,131.18285 45.5607,129.3852 45.5607,115.31541 V 99.546542 h 13.229169 13.22918 v 7.901378 7.90139 l -1.38907,-0.25112 c -3.58395,-0.64791 -7.2268,-3.01129 -9.48208,-6.15171 -0.94952,-1.32218 -1.54884,-1.63092 -2.34197,-1.20645 -1.62862,0.87161 -1.01081,2.52845 2.08403,5.58899 2.78255,2.75171 5.60398,4.14273 10.40148,5.12815 l 0.72761,0.14946 v 8.06475 8.06475 l -11.04637,-0.0271 c -6.07549,-0.0149 -11.43168,-0.11859 -11.90264,-0.23043 z"
             id="path332" /></g><g
           id="g345"
           transform="matrix(0.45700416,0,0,0.45700416,146.52171,129.12105)"
           style="fill:#fdba22;fill-opacity:1"><g
             id="g341"
             transform="matrix(0.82078729,0,0,0.82078729,166.75687,-27.649945)"
             style="fill:#fdba22;fill-opacity:1"><path
               style="font-weight:bold;font-size:37.9189px;line-height:0.8;font-family:Montserrat;-inkscape-font-specification:'Montserrat Bold';letter-spacing:0px;word-spacing:0px;fill:#fdba22;fill-opacity:1;stroke:#1a1a1a;stroke-width:0"
               d="m 238.87616,133.54082 q -1.50782,0 -2.94814,-0.36008 -1.44032,-0.38258 -2.29551,-0.94521 l 1.17026,-2.52055 q 0.81018,0.51761 1.95794,0.85518 1.14774,0.31507 2.25049,0.31507 2.22799,0 2.22799,-1.10273 0,-0.51762 -0.60763,-0.74267 -0.60764,-0.22505 -1.86792,-0.38258 -1.48532,-0.22505 -2.45304,-0.51762 -0.96771,-0.29256 -1.68786,-1.03522 -0.69766,-0.74266 -0.69766,-2.11547 0,-1.14776 0.65265,-2.02544 0.67514,-0.9002 1.93542,-1.39531 1.28279,-0.4951 3.01566,-0.4951 1.28278,0 2.54306,0.29255 1.28278,0.27007 2.11546,0.76518 l -1.17025,2.49805 q -1.59786,-0.9002 -3.48827,-0.9002 -1.12524,0 -1.68787,0.31506 -0.56262,0.31507 -0.56262,0.81018 0,0.56262 0.60763,0.78768 0.60763,0.22504 1.93542,0.42758 1.48533,0.24757 2.43054,0.54013 0.9452,0.27006 1.64286,1.01272 0.69765,0.74267 0.69765,2.07046 0,1.12524 -0.67514,2.00294 -0.67515,0.87769 -1.98044,1.37279 -1.28278,0.47261 -3.06068,0.47261 z"
               id="path333" /><path
               id="path334"
               style="font-weight:bold;font-size:37.9189px;line-height:0.8;font-family:Montserrat;-inkscape-font-specification:'Montserrat Bold';letter-spacing:0px;word-spacing:0px;fill:#fdba22;fill-opacity:1;stroke:#1a1a1a;stroke-width:0"
               d="m 226.16088,121.07323 c -1.21527,0 -2.31812,0.26966 -3.30833,0.80977 -0.97522,0.52512 -1.74756,1.26808 -2.31769,2.22829 -0.55512,0.94521 -0.83302,2.01041 -0.83302,3.19567 0,1.20027 0.28512,2.2732 0.85524,3.21841 0.57013,0.94521 1.38012,1.68765 2.43035,2.22777 1.05023,0.52511 2.25825,0.78755 3.62355,0.78755 2.19048,0 3.85583,-0.65274 4.99608,-1.95802 l -1.86811,-2.0252 c -0.42009,0.40509 -0.87741,0.70516 -1.37252,0.9002 -0.4801,0.18004 -1.03539,0.27027 -1.66553,0.27027 -0.91521,0 -1.68035,-0.21757 -2.29547,-0.65267 -0.61514,-0.4351 -1.00492,-1.02802 -1.16996,-1.77819 h 9.15913 c 0.045,-0.58514 0.0677,-0.90016 0.0677,-0.94516 0,-1.26027 -0.27739,-2.36311 -0.83251,-3.30833 -0.54012,-0.96021 -1.29029,-1.69544 -2.25051,-2.20555 -0.9602,-0.5101 -2.03314,-0.76481 -3.2184,-0.76481 z m 0.0227,2.65565 c 0.78017,0 1.44012,0.23254 1.98024,0.69764 0.54012,0.4501 0.87011,1.05746 0.99013,1.82262 H 223.19 c 0.12002,-0.78017 0.45052,-1.39526 0.99064,-1.84536 0.54012,-0.4501 1.20781,-0.6749 2.00297,-0.6749 z" /><path
               style="font-weight:bold;font-size:37.9189px;line-height:0.8;font-family:Montserrat;-inkscape-font-specification:'Montserrat Bold';letter-spacing:0px;word-spacing:0px;fill:#fdba22;fill-opacity:1;stroke:#1a1a1a;stroke-width:0"
               d="m 219.0043,132.77566 q -0.51761,0.38258 -1.28277,0.58513 -0.74268,0.18003 -1.57535,0.18003 -2.16048,0 -3.35324,-1.10274 -1.17026,-1.10274 -1.17026,-3.24072 v -4.97358 h -1.8679 v -2.7006 h 1.8679 v -2.94815 h 3.51077 v 2.94815 h 3.01567 v 2.7006 h -3.01567 v 4.92857 q 0,0.76517 0.38258,1.19277 0.40509,0.40509 1.12526,0.40509 0.83268,0 1.41781,-0.45011 z"
               id="path335" /><path
               style="font-weight:bold;font-size:37.9189px;line-height:0.8;font-family:Montserrat;-inkscape-font-specification:'Montserrat Bold';letter-spacing:0px;word-spacing:0px;fill:#fdba22;fill-opacity:1;stroke:#1a1a1a;stroke-width:0"
               d="m 203.00329,121.07309 q 2.25048,0 3.62329,1.35029 1.39531,1.3503 1.39531,4.00588 v 6.93153 h -3.51077 v -6.39142 q 0,-1.44031 -0.63014,-2.13797 -0.63014,-0.72016 -1.8229,-0.72016 -1.32779,0 -2.11547,0.83269 -0.78767,0.81018 -0.78767,2.43054 v 5.98632 h -3.51077 v -12.10767 h 3.35324 v 1.41781 q 0.69765,-0.76516 1.73288,-1.17026 1.03523,-0.42758 2.273,-0.42758 z"
               id="path336" /><path
               id="path337"
               style="font-weight:bold;font-size:37.9189px;line-height:0.8;font-family:Montserrat;-inkscape-font-specification:'Montserrat Bold';letter-spacing:0px;word-spacing:0px;fill:#fdba22;fill-opacity:1;stroke:#1a1a1a;stroke-width:0"
               d="m 187.00203,121.07323 c -1.21526,0 -2.31759,0.26966 -3.30781,0.80977 -0.97522,0.52512 -1.74808,1.26808 -2.31821,2.22829 -0.55512,0.94521 -0.83251,2.01041 -0.83251,3.19567 0,1.20027 0.28512,2.2732 0.85525,3.21841 0.57013,0.94521 1.38011,1.68765 2.43034,2.22777 1.05023,0.52511 2.25774,0.78755 3.62304,0.78755 2.19048,0 3.85583,-0.65274 4.99607,-1.95802 l -1.86758,-2.0252 c -0.42009,0.40509 -0.87793,0.70516 -1.37304,0.9002 -0.4801,0.18004 -1.03487,0.27027 -1.66502,0.27027 -0.91519,0 -1.68033,-0.21757 -2.29547,-0.65267 -0.61514,-0.4351 -1.00543,-1.02802 -1.17047,-1.77819 h 9.15965 c 0.045,-0.58514 0.0672,-0.90016 0.0672,-0.94516 0,-1.26027 -0.27739,-2.36311 -0.83251,-3.30833 -0.54012,-0.96021 -1.29029,-1.69544 -2.25051,-2.20555 -0.9602,-0.5101 -2.03314,-0.76481 -3.2184,-0.76481 z m 0.0227,2.65565 c 0.78018,0 1.44012,0.23254 1.98024,0.69764 0.54012,0.4501 0.87063,1.05746 0.99064,1.82262 h -5.96398 c 0.12003,-0.78017 0.45,-1.39526 0.99012,-1.84536 0.54012,-0.4501 1.20781,-0.6749 2.00298,-0.6749 z" /><path
               style="font-weight:bold;font-size:37.9189px;line-height:0.8;font-family:Montserrat;-inkscape-font-specification:'Montserrat Bold';letter-spacing:0px;word-spacing:0px;fill:#fdba22;fill-opacity:1;stroke:#1a1a1a;stroke-width:0"
               d="m 173.56681,133.54082 q -1.50783,0 -2.94816,-0.36008 -1.44031,-0.38258 -2.2955,-0.94521 l 1.17026,-2.52055 q 0.81017,0.51761 1.95793,0.85518 1.14775,0.31507 2.25049,0.31507 2.22799,0 2.22799,-1.10273 0,-0.51762 -0.60763,-0.74267 -0.60763,-0.22505 -1.86791,-0.38258 -1.48532,-0.22505 -2.45305,-0.51762 -0.9677,-0.29256 -1.68786,-1.03522 -0.69765,-0.74266 -0.69765,-2.11547 0,-1.14776 0.65264,-2.02544 0.67515,-0.9002 1.93543,-1.39531 1.28278,-0.4951 3.01567,-0.4951 1.28277,0 2.54305,0.29255 1.28277,0.27007 2.11546,0.76518 l -1.17025,2.49805 q -1.59786,-0.9002 -3.48826,-0.9002 -1.12527,0 -1.68788,0.31506 -0.56262,0.31507 -0.56262,0.81018 0,0.56262 0.60763,0.78768 0.60763,0.22504 1.93541,0.42758 1.48534,0.24757 2.43055,0.54013 0.94521,0.27006 1.64285,1.01272 0.69765,0.74267 0.69765,2.07046 0,1.12524 -0.67514,2.00294 -0.67515,0.87769 -1.98043,1.37279 -1.28278,0.47261 -3.06067,0.47261 z"
               id="path338" /><path
               id="path339"
               style="font-weight:bold;font-size:37.9189px;line-height:0.8;font-family:Montserrat;-inkscape-font-specification:'Montserrat Bold';letter-spacing:0px;word-spacing:0px;fill:#fdba22;fill-opacity:1;stroke:#1a1a1a;stroke-width:0"
               d="m 160.85168,121.07323 c -1.21526,0 -2.31811,0.26966 -3.30832,0.80977 -0.97522,0.52512 -1.74808,1.26808 -2.31821,2.22829 -0.55512,0.94521 -0.8325,2.01041 -0.8325,3.19567 0,1.20027 0.28511,2.2732 0.85524,3.21841 0.57013,0.94521 1.3801,1.68765 2.43034,2.22777 1.05022,0.52511 2.25826,0.78755 3.62356,0.78755 2.19048,0 3.85582,-0.65274 4.99607,-1.95802 l -1.8681,-2.0252 c -0.42009,0.40509 -0.87742,0.70516 -1.37253,0.9002 -0.4801,0.18004 -1.03539,0.27027 -1.66553,0.27027 -0.9152,0 -1.68033,-0.21757 -2.29547,-0.65267 -0.61513,-0.4351 -1.00543,-1.02802 -1.17047,-1.77819 h 9.15965 c 0.045,-0.58514 0.0677,-0.90016 0.0677,-0.94516 0,-1.26027 -0.27791,-2.36311 -0.83303,-3.30833 -0.54012,-0.96021 -1.29029,-1.69544 -2.25051,-2.20555 -0.96021,-0.5101 -2.03263,-0.76481 -3.21789,-0.76481 z m 0.0222,2.65565 c 0.78017,0 1.44064,0.23254 1.98076,0.69764 0.54012,0.4501 0.8701,1.05746 0.99012,1.82262 h -5.96397 c 0.12002,-0.78017 0.44999,-1.39526 0.99012,-1.84536 0.54011,-0.4501 1.2078,-0.6749 2.00297,-0.6749 z" /><path
               style="font-weight:bold;font-size:37.9189px;line-height:0.8;font-family:Montserrat;-inkscape-font-specification:'Montserrat Bold';letter-spacing:0px;word-spacing:0px;fill:#fdba22;fill-opacity:1;stroke:#1a1a1a;stroke-width:0"
               d="m 149.14895,122.85096 q 0.63014,-0.87769 1.68787,-1.32778 1.08024,-0.45009 2.47555,-0.45009 v 3.2407 q -0.58513,-0.045 -0.78768,-0.045 -1.50783,0 -2.36302,0.85519 -0.85518,0.83268 -0.85518,2.52057 v 5.71624 h -3.51078 v -12.10765 h 3.35324 z"
               id="path340" /><path
               id="path341"
               style="font-weight:bold;font-size:37.9189px;line-height:0.8;font-family:Montserrat;-inkscape-font-specification:'Montserrat Bold';letter-spacing:0px;word-spacing:0px;fill:#fdba22;fill-opacity:1;stroke:#1a1a1a;stroke-width:0"
               d="m 129.79466,117.60729 v 15.75356 h 3.64578 v -4.3434 h 3.17345 c 1.3953,0 2.60281,-0.2253 3.62303,-0.67541 1.03523,-0.4651 1.83026,-1.12506 2.38538,-1.98024 0.55512,-0.8702 0.83303,-1.8828 0.83303,-3.03806 0,-1.17025 -0.27791,-2.18339 -0.83303,-3.03857 -0.55512,-0.8552 -1.35015,-1.51514 -2.38538,-1.98024 -1.02022,-0.4651 -2.22773,-0.69764 -3.62303,-0.69764 z m 3.64578,2.97088 h 2.97087 c 1.09524,0 1.92791,0.23975 2.49804,0.71985 0.57013,0.4651 0.85525,1.14053 0.85525,2.02572 0,0.8702 -0.28512,1.5451 -0.85525,2.0252 -0.57013,0.46511 -1.4028,0.69763 -2.49804,0.69763 h -2.97087 z" /></g><g
             id="g344"
             transform="matrix(0.82078729,0,0,0.82078729,168.56383,-27.649953)"
             style="fill:#fdba22;fill-opacity:1"><path
               style="font-weight:bold;font-size:37.9189px;line-height:0.8;font-family:Montserrat;-inkscape-font-specification:'Montserrat Bold';letter-spacing:0px;word-spacing:0px;fill:#fdba22;fill-opacity:1;stroke:#1a1a1a;stroke-width:0"
               d="m 121.73791,121.25312 -5.46871,12.85033 q -0.83267,2.09296 -2.07045,2.94815 -1.21526,0.85519 -2.94815,0.85519 -0.9452,0 -1.8679,-0.29257 -0.92271,-0.29257 -1.50783,-0.81018 l 1.28278,-2.49805 q 0.40509,0.36007 0.9227,0.56262 0.54012,0.20254 1.05774,0.20254 0.72015,0 1.17025,-0.36007 0.4501,-0.33758 0.81018,-1.14775 l 0.045,-0.11253 -5.24365,-12.19768 h 3.62331 l 3.39824,8.2143 3.42075,-8.2143 z"
               id="path342" /><path
               id="path343"
               style="font-weight:bold;font-size:37.9189px;line-height:0.8;font-family:Montserrat;-inkscape-font-specification:'Montserrat Bold';letter-spacing:0px;word-spacing:0px;fill:#fdba22;fill-opacity:1;stroke:#1a1a1a;stroke-width:0"
               d="m 101.07859,121.07323 c -1.275285,0 -2.423498,0.26966 -3.443721,0.80977 -1.005222,0.52512 -1.792522,1.26035 -2.362646,2.20555 -0.570127,0.94521 -0.855245,2.01814 -0.855245,3.21841 0,1.20027 0.285118,2.2732 0.855245,3.21841 0.570124,0.94521 1.357424,1.68765 2.362646,2.22777 1.020223,0.52511 2.168436,0.78755 3.443721,0.78755 1.27527,0 2.41523,-0.26244 3.42046,-0.78755 1.00522,-0.54012 1.79304,-1.28256 2.36316,-2.22777 0.57013,-0.94521 0.85525,-2.01814 0.85525,-3.21841 0,-1.20027 -0.28512,-2.2732 -0.85525,-3.21841 -0.57012,-0.9452 -1.35794,-1.68043 -2.36316,-2.20555 -1.00523,-0.54011 -2.14519,-0.80977 -3.42046,-0.80977 z m 0,2.88045 c 0.90019,0 1.6349,0.3078 2.20503,0.92294 0.58513,0.60013 0.87798,1.41012 0.87798,2.43034 0,1.02023 -0.29285,1.83795 -0.87798,2.45308 -0.57013,0.60013 -1.30484,0.9002 -2.20503,0.9002 -0.9002,0 -1.643167,-0.30007 -2.228291,-0.9002 -0.585131,-0.61513 -0.877466,-1.43285 -0.877466,-2.45308 0,-1.02022 0.292335,-1.83021 0.877466,-2.43034 0.585124,-0.61514 1.328091,-0.92294 2.228291,-0.92294 z" /><path
               style="font-weight:bold;font-size:37.9189px;line-height:0.8;font-family:Montserrat;-inkscape-font-specification:'Montserrat Bold';letter-spacing:0px;word-spacing:0px;fill:#fdba22;fill-opacity:1;stroke:#1a1a1a;stroke-width:0"
               d="m 86.292591,133.63082 q -1.597854,0 -2.94815,-0.58514 -1.327795,-0.60762 -2.182977,-1.71036 l 2.025443,-2.43054 q 1.28278,1.73289 2.925641,1.73289 2.227992,0 2.227992,-2.61058 v -7.49414 h -5.536216 v -2.92565 h 9.15951 v 10.21724 q 0,2.90315 -1.440317,4.36596 -1.440313,1.44032 -4.230926,1.44032 z"
               id="path344" /></g></g></g></g></g></svg>
